HIERARCHY
ROOT wake_up
{
	OFFSET 0.000000 0.000000 0.000000
	CHANNELS 6 Xposition Yposition Zposition Xrotation Yrotation Zrotation
	JOINT Spine_01
	{
		OFFSET -15.726042 46.479080 -35.209511
		CHANNELS 3 Xrotation Yrotation Zrotation
		JOINT Spine_02
		{
			OFFSET 5.541418 1.877865 29.024694
			CHANNELS 3 Xrotation Yrotation Zrotation
			JOINT Spine_03
			{
				OFFSET 2.628587 0.174591 36.885056
				CHANNELS 3 Xrotation Yrotation Zrotation
				JOINT Spine_04
				{
					OFFSET -1.603225 -5.055920 40.606491
					CHANNELS 3 Xrotation Yrotation Zrotation
					JOINT Neck_Base
					{
						OFFSET -0.168962 -9.199429 28.191780
						CHANNELS 3 Xrotation Yrotation Zrotation
						JOINT Neck_01
						{
							OFFSET 4.346485 -1.182629 20.268997
							CHANNELS 3 Xrotation Yrotation Zrotation
							JOINT Neck_02
							{
								OFFSET 13.406309 -10.525919 13.310966
								CHANNELS 3 Xrotation Yrotation Zrotation
								JOINT Head
								{
									OFFSET 16.539116 -9.371456 11.006622
									CHANNELS 3 Xrotation Yrotation Zrotation
									JOINT L_Ear
									{
										OFFSET 10.807261 8.380554 15.353119
										CHANNELS 3 Xrotation Yrotation Zrotation
										End Site
										{
											OFFSET -13.339039 7.885466 6.691162
										}
									}
									JOINT R_Ear
									{
										OFFSET 8.888998 -7.259084 17.059998
										CHANNELS 3 Xrotation Yrotation Zrotation
										End Site
										{
											OFFSET 14.657318 2.863599 -7.864151
										}
									}
									JOINT Jaw
									{
										OFFSET 8.252729 -1.501899 -4.488205
										CHANNELS 3 Xrotation Yrotation Zrotation
										End Site
										{
											OFFSET -1.212494 1.973128 16.718811
										}
									}
								}
							}
						}
					}
					JOINT R_Scapula
					{
						OFFSET -10.245760 10.888084 13.737778
						CHANNELS 3 Xrotation Yrotation Zrotation
						JOINT R_Shoulder
						{
							OFFSET 2.703691 -31.987474 27.049423
							CHANNELS 3 Xrotation Yrotation Zrotation
							JOINT R_Front_UpperLeg
							{
								OFFSET 0.030283 -1.734751 -33.251938
								CHANNELS 3 Xrotation Yrotation Zrotation
								JOINT R_Front_LowerLeg
								{
									OFFSET 6.147914 -17.940323 35.051308
									CHANNELS 3 Xrotation Yrotation Zrotation
									JOINT R_Front_Ankle
									{
										OFFSET -0.635985 3.245901 -30.461060
										CHANNELS 3 Xrotation Yrotation Zrotation
										JOINT R_Front_Hoof
										{
											OFFSET 0.000006 0.276510 -10.049828
											CHANNELS 3 Xrotation Yrotation Zrotation
											End Site
											{
												OFFSET -0.000003 9.060736 4.356453
											}
										}
									}
								}
							}
						}
					}
					JOINT L_Scapula
					{
						OFFSET 2.941061 13.667645 14.723839
						CHANNELS 3 Xrotation Yrotation Zrotation
						JOINT L_Shoulder
						{
							OFFSET 8.976520 -37.668716 16.206238
							CHANNELS 3 Xrotation Yrotation Zrotation
							JOINT L_Front_UpperLeg
							{
								OFFSET 1.958391 3.515308 -33.053032
								CHANNELS 3 Xrotation Yrotation Zrotation
								JOINT L_Front_LowerLeg
								{
									OFFSET 8.184884 -19.069668 34.023247
									CHANNELS 3 Xrotation Yrotation Zrotation
									JOINT L_Front_Ankle
									{
										OFFSET -2.711665 1.301991 -30.491951
										CHANNELS 3 Xrotation Yrotation Zrotation
										JOINT L_Front_Hoof
										{
											OFFSET 0.004587 0.949739 -10.008595
											CHANNELS 3 Xrotation Yrotation Zrotation
											End Site
											{
												OFFSET 0.011363 -8.748222 -4.954044
											}
										}
									}
								}
							}
						}
					}
				}
			}
		}
		JOINT L_Hip
		{
			OFFSET 13.339148 -2.475483 -15.636066
			CHANNELS 3 Xrotation Yrotation Zrotation
			JOINT L_Back_UpperLeg
			{
				OFFSET 17.466444 -21.713903 21.987526
				CHANNELS 3 Xrotation Yrotation Zrotation
				JOINT L_Back_LowerLeg
				{
					OFFSET -2.525522 -6.718699 -44.338810
					CHANNELS 3 Xrotation Yrotation Zrotation
					JOINT L_Back_Ankle
					{
						OFFSET 5.338428 -5.874825 35.304855
						CHANNELS 3 Xrotation Yrotation Zrotation
						JOINT L_Back_Hoof
						{
							OFFSET 1.776194 0.058387 11.538919
							CHANNELS 3 Xrotation Yrotation Zrotation
							End Site
							{
								OFFSET 1.266060 3.069224 11.192941
							}
						}
					}
				}
			}
		}
		JOINT R_Hip
		{
			OFFSET -13.794096 -12.667450 -8.820641
			CHANNELS 3 Xrotation Yrotation Zrotation
			JOINT R_Back_UpperLeg
			{
				OFFSET 9.792694 -20.890841 26.976009
				CHANNELS 3 Xrotation Yrotation Zrotation
				JOINT R_Back_LowerLeg
				{
					OFFSET -8.441336 -4.726068 -43.861732
					CHANNELS 3 Xrotation Yrotation Zrotation
					JOINT R_Back_Ankle
					{
						OFFSET 23.149288 -2.053929 27.737022
						CHANNELS 3 Xrotation Yrotation Zrotation
						JOINT R_Back_Hoof
						{
							OFFSET 8.671298 0.439285 7.805099
							CHANNELS 3 Xrotation Yrotation Zrotation
							End Site
							{
								OFFSET -0.550738 2.285357 -11.435810
							}
						}
					}
				}
			}
		}
		JOINT Tail_01
		{
			OFFSET -8.775034 8.242878 -22.608025
			CHANNELS 3 Xrotation Yrotation Zrotation
			JOINT Tail_02
			{
				OFFSET -0.650974 -12.905975 -17.916740
				CHANNELS 3 Xrotation Yrotation Zrotation
				JOINT Tail_03
				{
					OFFSET 9.878128 -20.487425 -5.282875
					CHANNELS 3 Xrotation Yrotation Zrotation
					JOINT Tail_04
					{
						OFFSET 19.391647 -12.774627 -0.430954
						CHANNELS 3 Xrotation Yrotation Zrotation
						JOINT Tail_05
						{
							OFFSET 21.815006 -3.091185 7.782555
							CHANNELS 3 Xrotation Yrotation Zrotation
							End Site
							{
								OFFSET 13.488668 -13.065145 -13.905975
							}
						}
					}
				}
			}
		}
	}
}
MOTION
Frames: 4
Frame Time: 0.033333
0.000000 0.000000 0.000000 0.000005 -0.000003 0.000000 -0.000015 -0.000009 -0.000020 0.000011 -0.000000 0.000083 -0.000009 0.000002 -0.000066 0.000006 0.000000 0.000004 -0.000032 -0.000014 -0.000002 0.000039 0.000015 -0.000025 -0.000001 -0.000017 0.000026 0.000021 0.000021 -0.000009 -0.000029 0.000016 -0.000032 -0.000001 0.000015 0.000004 -0.000020 -0.000002 0.000027 0.000025 0.000007 -0.000004 -0.000003 -0.000001 0.000032 -0.000006 -0.000003 -0.000035 0.000009 -0.000028 0.000056 0.000004 0.000008 -0.000030 -0.000009 0.000034 -0.000017 0.000010 0.000004 -0.000002 -0.000011 0.000002 0.000001 0.000010 -0.000005 -0.000003 0.000021 -0.000094 0.000079 -0.000001 0.000007 -0.000163 0.000017 -0.000003 -0.000001 0.000006 0.000005 -0.000008 0.000007 0.000006 0.000016 0.000006 -0.000004 0.000028 0.000004 0.000008 0.000001 -0.000020 -0.000001 -0.000100 0.000009 0.000008 -0.000003 0.000013 -0.000009 0.000048 -0.000010 0.000008 -0.000027 -0.000005 0.000012 -0.000000 0.000073 0.000016 0.000015 -0.000003 0.000009 0.000022 -0.000002 -0.000003 -0.000022 -0.000006 -0.000001 0.000004 0.000005 0.000026 -0.000006 -0.000004 -0.000040 0.000029 
0.000000 0.000000 0.000000 0.000005 -0.000003 0.000000 -0.010014 -0.009981 0.003001 0.002946 -0.014087 0.011717 -0.013031 0.009364 0.047311 -0.014353 0.012728 0.010037 -0.293011 -0.325197 0.004153 0.135705 -0.039581 -0.019175 0.046735 0.099413 -0.103674 0.126923 0.090123 -0.203659 -0.000038 0.000016 -0.000027 -0.000033 0.000008 0.000004 -0.000020 -0.000002 0.000028 0.024705 0.000063 0.001656 -0.039833 -0.003254 0.000166 0.022547 -0.004257 -0.060473 -0.006629 -0.002560 -0.000075 0.046443 0.011988 -0.013326 -0.000005 0.000034 -0.000015 -0.029427 -0.181310 0.145934 0.043695 0.012085 0.003871 0.214553 0.080993 -0.353529 -0.045955 -0.013559 0.003591 -0.284542 0.101705 0.268656 0.115356 -0.000001 0.000051 0.016697 0.006274 -0.004198 0.002251 0.006262 0.002830 -0.005483 -0.001632 0.000592 -0.003403 -0.000864 -0.002207 -0.000023 -0.000002 -0.000101 0.003925 0.001474 -0.000984 0.007348 0.013124 -0.003013 0.001465 0.005217 -0.000877 -0.002756 -0.009774 0.001818 0.000073 0.000017 0.000014 0.000518 0.005702 0.008674 -0.004447 0.009237 0.002348 -0.008782 0.005786 0.000186 -0.009810 0.001412 -0.003518 -0.007649 -0.000240 -0.007196 
0.000000 0.000000 0.000000 0.000005 -0.000003 0.000000 -0.038935 -0.038975 0.011758 0.011516 -0.054842 0.045216 -0.051902 0.036202 0.184541 -0.057151 0.049335 0.038997 -1.123895 -1.235166 0.001972 0.520132 -0.165143 -0.073413 0.171143 0.384211 -0.413986 0.484522 0.332896 -0.789826 -0.000050 0.000026 -0.000030 -0.000065 0.000016 0.000006 -0.000020 -0.000003 0.000028 0.096500 0.000273 0.006456 -0.155234 -0.012681 0.000543 0.092080 -0.015159 -0.237305 -0.027198 -0.010402 -0.000482 0.180507 0.046220 -0.049718 -0.000007 0.000034 -0.000010 -0.111557 -0.686817 0.549367 0.157566 0.043585 0.013910 0.742202 0.282758 -1.316848 -0.179581 -0.052714 0.013738 -1.016053 0.395042 0.990384 0.449243 0.000001 0.000044 0.065002 0.024406 -0.016343 0.008746 0.024375 0.010969 -0.021513 -0.006385 0.002225 -0.013306 -0.003394 -0.008606 -0.000024 -0.000003 -0.000101 0.015264 0.005728 -0.003833 0.028651 0.051132 -0.011824 0.005715 0.020220 -0.003311 -0.010686 -0.038058 0.007157 0.000075 0.000012 0.000014 0.001319 0.023694 0.033320 -0.017334 0.035957 0.009240 -0.034203 0.022539 0.000772 -0.038247 0.005445 -0.013646 -0.029775 -0.000832 -0.028107 
0.000000 0.000000 0.000000 0.000005 -0.000003 0.000000 -0.085220 -0.085343 0.025679 0.025393 -0.119878 0.098793 -0.116396 0.078432 0.404320 -0.127609 0.107285 0.085100 -2.422826 -2.623884 -0.042147 1.100937 -0.400521 -0.162313 0.351392 0.838247 -0.936423 1.038844 0.695557 -1.714084 -0.000066 0.000023 -0.000025 -0.000102 0.000011 0.000010 -0.000020 -0.000002 0.000027 0.212132 0.000702 0.014139 -0.340132 -0.027786 0.001106 0.211832 -0.029280 -0.525480 -0.062700 -0.023938 -0.001194 0.393794 0.099792 -0.102545 -0.000009 0.000034 -0.000002 -0.232306 -1.460563 1.158787 0.311448 0.086185 0.027373 1.406293 0.547958 -2.747818 -0.398753 -0.116992 0.030171 -2.007171 0.853833 2.043956 0.983508 -0.000002 0.000030 0.142278 0.053404 -0.035800 0.019248 0.053379 0.023960 -0.046998 -0.013941 0.004816 -0.029277 -0.007486 -0.018863 -0.000022 -0.000004 -0.000103 0.033348 0.012523 -0.008385 0.062754 0.111874 -0.025929 0.012510 0.044211 -0.007205 -0.023394 -0.083276 0.015647 0.000075 0.000013 0.000014 0.002770 0.052028 0.072852 -0.037947 0.078707 0.020286 -0.074893 0.049331 0.001684 -0.083733 0.011909 -0.029877 -0.065200 -0.001760 -0.061557 
